<svg xmlns="http://www.w3.org/2000/svg" xmlns:xlink="http://www.w3.org/1999/xlink" width="1440" zoomAndPan="magnify" viewBox="0 0 1080 1079.999946" height="1440" preserveAspectRatio="xMidYMid meet" version="1.0"><defs><clipPath id="aa8159b426"><path d="M 540 0 C 241.765625 0 0 241.765625 0 540 C 0 838.234375 241.765625 1080 540 1080 C 838.234375 1080 1080 838.234375 1080 540 C 1080 241.765625 838.234375 0 540 0 Z M 540 0 " clip-rule="nonzero"/></clipPath></defs><g clip-path="url(#aa8159b426)"><path stroke-linecap="butt" transform="matrix(0.75, 0, 0, 0.75, 0.000027, -0.00002)" fill="none" stroke-linejoin="miter" d="M 720.00003 0.0000266667 C 322.35416 0.0000266667 -0.000036 322.354223 -0.000036 720.000093 C -0.000036 1117.645962 322.35416 1440.000159 720.00003 1440.000159 C 1117.6459 1440.000159 1440.000096 1117.645962 1440.000096 720.000093 C 1440.000096 322.354223 1117.6459 0.0000266667 720.00003 0.0000266667 Z M 720.00003 0.0000266667 " stroke="#fdfdfd" stroke-width="120" stroke-opacity="1" stroke-miterlimit="4"/></g><path fill="#fdfdfd" d="M 909.355469 503.851562 L 875.375 503.851562 L 875.375 852.316406 C 875.300781 853.488281 875.171875 854.652344 874.984375 855.8125 C 874.796875 856.972656 874.554688 858.117188 874.257812 859.253906 C 873.960938 860.390625 873.605469 861.507812 873.199219 862.609375 C 872.792969 863.710938 872.332031 864.789062 871.820312 865.847656 C 871.304688 866.902344 870.742188 867.933594 870.128906 868.933594 C 869.515625 869.933594 868.855469 870.902344 868.148438 871.839844 C 867.441406 872.777344 866.691406 873.679688 865.894531 874.542969 C 865.101562 875.40625 864.265625 876.230469 863.390625 877.011719 C 862.511719 877.792969 861.601562 878.53125 860.652344 879.226562 C 859.707031 879.917969 858.726562 880.5625 857.714844 881.160156 C 856.707031 881.761719 855.667969 882.308594 854.605469 882.804688 C 853.539062 883.300781 852.457031 883.746094 851.347656 884.136719 C 850.242188 884.527344 849.117188 884.863281 847.976562 885.144531 C 846.835938 885.425781 845.6875 885.648438 844.523438 885.820312 C 843.363281 885.988281 842.195312 886.101562 841.023438 886.15625 C 839.847656 886.210938 838.675781 886.207031 837.503906 886.148438 L 636.753906 886.148438 L 636.753906 648.554688 C 636.753906 647.742188 636.714844 646.929688 636.632812 646.121094 C 636.554688 645.3125 636.4375 644.507812 636.277344 643.710938 C 636.117188 642.914062 635.921875 642.128906 635.6875 641.347656 C 635.449219 640.570312 635.175781 639.808594 634.867188 639.054688 C 634.554688 638.304688 634.207031 637.570312 633.824219 636.855469 C 633.441406 636.136719 633.023438 635.441406 632.574219 634.765625 C 632.121094 634.089844 631.636719 633.4375 631.121094 632.808594 C 630.605469 632.179688 630.0625 631.578125 629.488281 631.003906 C 628.914062 630.429688 628.3125 629.882812 627.683594 629.367188 C 627.054688 628.851562 626.402344 628.367188 625.726562 627.917969 C 625.050781 627.464844 624.355469 627.046875 623.640625 626.664062 C 622.921875 626.28125 622.1875 625.933594 621.4375 625.621094 C 620.6875 625.308594 619.921875 625.035156 619.144531 624.800781 C 618.367188 624.5625 617.582031 624.367188 616.785156 624.207031 C 615.988281 624.046875 615.183594 623.929688 614.375 623.847656 C 613.566406 623.769531 612.753906 623.726562 611.941406 623.726562 L 466.292969 623.726562 C 465.480469 623.726562 464.667969 623.765625 463.859375 623.847656 C 463.050781 623.925781 462.246094 624.046875 461.449219 624.203125 C 460.652344 624.363281 459.863281 624.558594 459.085938 624.796875 C 458.308594 625.03125 457.542969 625.304688 456.792969 625.617188 C 456.042969 625.929688 455.308594 626.273438 454.589844 626.660156 C 453.875 627.042969 453.179688 627.460938 452.503906 627.910156 C 451.828125 628.363281 451.175781 628.847656 450.546875 629.363281 C 449.917969 629.878906 449.316406 630.425781 448.742188 631 C 448.167969 631.574219 447.621094 632.175781 447.105469 632.804688 C 446.589844 633.433594 446.109375 634.085938 445.65625 634.761719 C 445.203125 635.4375 444.789062 636.132812 444.40625 636.851562 C 444.023438 637.570312 443.675781 638.300781 443.363281 639.054688 C 443.054688 639.804688 442.78125 640.570312 442.546875 641.347656 C 442.308594 642.125 442.113281 642.914062 441.953125 643.710938 C 441.796875 644.507812 441.675781 645.3125 441.597656 646.121094 C 441.519531 646.929688 441.480469 647.742188 441.480469 648.554688 L 441.480469 886.136719 L 240.714844 886.136719 C 239.546875 886.195312 238.378906 886.203125 237.207031 886.148438 C 236.039062 886.097656 234.875 885.988281 233.714844 885.820312 C 232.558594 885.65625 231.410156 885.433594 230.273438 885.15625 C 229.136719 884.875 228.015625 884.542969 226.914062 884.15625 C 225.808594 883.765625 224.726562 883.324219 223.664062 882.832031 C 222.601562 882.335938 221.570312 881.792969 220.5625 881.195312 C 219.554688 880.601562 218.578125 879.957031 217.632812 879.269531 C 216.6875 878.578125 215.777344 877.839844 214.90625 877.0625 C 214.035156 876.28125 213.199219 875.460938 212.40625 874.601562 C 211.617188 873.738281 210.867188 872.839844 210.164062 871.90625 C 209.457031 870.972656 208.800781 870.003906 208.191406 869.007812 C 207.578125 868.007812 207.019531 866.980469 206.511719 865.929688 C 206 864.875 205.542969 863.796875 205.140625 862.699219 C 204.734375 861.601562 204.386719 860.484375 204.089844 859.355469 C 203.796875 858.222656 203.554688 857.078125 203.371094 855.921875 C 203.1875 854.765625 203.0625 853.601562 202.992188 852.433594 L 202.992188 503.851562 L 168.863281 503.851562 C 131.035156 503.851562 110.542969 468.238281 135.324219 445.386719 L 508.835938 100.082031 C 510.003906 99.097656 511.210938 98.160156 512.457031 97.28125 C 513.707031 96.398438 514.992188 95.578125 516.3125 94.808594 C 517.632812 94.042969 518.984375 93.332031 520.367188 92.683594 C 521.753906 92.035156 523.160156 91.449219 524.597656 90.925781 C 526.03125 90.402344 527.488281 89.941406 528.960938 89.546875 C 530.4375 89.148438 531.925781 88.820312 533.433594 88.554688 C 534.9375 88.289062 536.449219 88.089844 537.972656 87.960938 C 539.496094 87.828125 541.019531 87.765625 542.546875 87.769531 C 544.074219 87.769531 545.601562 87.839844 547.121094 87.976562 C 548.644531 88.117188 550.15625 88.320312 551.660156 88.589844 C 553.164062 88.859375 554.652344 89.195312 556.125 89.597656 C 557.597656 90 559.054688 90.46875 560.484375 90.996094 C 561.917969 91.527344 563.324219 92.117188 564.707031 92.773438 C 566.085938 93.425781 567.4375 94.140625 568.753906 94.914062 C 570.070312 95.683594 571.351562 96.515625 572.597656 97.398438 C 573.84375 98.285156 575.046875 99.226562 576.207031 100.214844 C 698.488281 215.3125 820.820312 330.40625 943.207031 445.503906 C 967.527344 468.578125 947.050781 503.851562 909.355469 503.851562 Z M 909.355469 503.851562 " fill-opacity="1" fill-rule="nonzero"/></svg>