<svg xmlns="http://www.w3.org/2000/svg" xmlns:xlink="http://www.w3.org/1999/xlink" width="1440" zoomAndPan="magnify" viewBox="0 0 1080 1079.999946" height="1440" preserveAspectRatio="xMidYMid meet" version="1.0"><defs><clipPath id="39394c4b8b"><path d="M 540 0 C 241.765625 0 0 241.765625 0 540 C 0 838.234375 241.765625 1080 540 1080 C 838.234375 1080 1080 838.234375 1080 540 C 1080 241.765625 838.234375 0 540 0 Z M 540 0 " clip-rule="nonzero"/></clipPath><clipPath id="a38cdf19eb"><path d="M 108 427.371094 L 333.257812 427.371094 L 333.257812 652.628906 L 108 652.628906 Z M 108 427.371094 " clip-rule="nonzero"/></clipPath><clipPath id="af0b83b184"><path d="M 220.628906 427.371094 C 158.425781 427.371094 108 477.796875 108 540 C 108 602.203125 158.425781 652.628906 220.628906 652.628906 C 282.832031 652.628906 333.257812 602.203125 333.257812 540 C 333.257812 477.796875 282.832031 427.371094 220.628906 427.371094 Z M 220.628906 427.371094 " clip-rule="nonzero"/></clipPath><clipPath id="8f233bf94f"><path d="M 0 0.371094 L 225.257812 0.371094 L 225.257812 225.628906 L 0 225.628906 Z M 0 0.371094 " clip-rule="nonzero"/></clipPath><clipPath id="85b3ccd033"><path d="M 112.628906 0.371094 C 50.425781 0.371094 0 50.796875 0 113 C 0 175.203125 50.425781 225.628906 112.628906 225.628906 C 174.832031 225.628906 225.257812 175.203125 225.257812 113 C 225.257812 50.796875 174.832031 0.371094 112.628906 0.371094 Z M 112.628906 0.371094 " clip-rule="nonzero"/></clipPath><clipPath id="f664b0603f"><rect x="0" width="226" y="0" height="226"/></clipPath><clipPath id="8200555179"><path d="M 714.5625 427.371094 L 972 427.371094 L 972 652.628906 L 714.5625 652.628906 Z M 714.5625 427.371094 " clip-rule="nonzero"/></clipPath><clipPath id="4267046b33"><path d="M 843.28125 427.371094 L 972 652.628906 L 714.5625 652.628906 Z M 843.28125 427.371094 " clip-rule="nonzero"/></clipPath><clipPath id="774e9e0331"><path d="M 0.5625 0.371094 L 258 0.371094 L 258 225.628906 L 0.5625 225.628906 Z M 0.5625 0.371094 " clip-rule="nonzero"/></clipPath><clipPath id="0810d93e8d"><path d="M 129.28125 0.371094 L 258 225.628906 L 0.5625 225.628906 Z M 129.28125 0.371094 " clip-rule="nonzero"/></clipPath><clipPath id="79474742b8"><rect x="0" width="258" y="0" height="226"/></clipPath></defs><g clip-path="url(#39394c4b8b)"><path stroke-linecap="butt" transform="matrix(0.75, 0, 0, 0.75, 0.000027, -0.00002)" fill="none" stroke-linejoin="miter" d="M 720.00003 0.0000266667 C 322.35416 0.0000266667 -0.000036 322.354223 -0.000036 720.000093 C -0.000036 1117.645962 322.35416 1440.000159 720.00003 1440.000159 C 1117.6459 1440.000159 1440.000096 1117.645962 1440.000096 720.000093 C 1440.000096 322.354223 1117.6459 0.0000266667 720.00003 0.0000266667 Z M 720.00003 0.0000266667 " stroke="#eceff1" stroke-width="60" stroke-opacity="1" stroke-miterlimit="4"/></g><g clip-path="url(#a38cdf19eb)"><g clip-path="url(#af0b83b184)"><g transform="matrix(1, 0, 0, 1, 108, 427)"><g clip-path="url(#f664b0603f)"><g clip-path="url(#8f233bf94f)"><g clip-path="url(#85b3ccd033)"><path fill="#eceff1" d="M 0 0.371094 L 225.257812 0.371094 L 225.257812 225.628906 L 0 225.628906 Z M 0 0.371094 " fill-opacity="1" fill-rule="nonzero"/></g></g></g></g></g></g><path stroke-linecap="butt" transform="matrix(0, -0.75, 0.75, 0, 528.749979, 971.999891)" fill="none" stroke-linejoin="miter" d="M -0.000145467 15.00003 L 1151.99996 15.00003 " stroke="#eceff1" stroke-width="30" stroke-opacity="1" stroke-miterlimit="4"/><g clip-path="url(#8200555179)"><g clip-path="url(#4267046b33)"><g transform="matrix(1, 0, 0, 1, 714, 427)"><g clip-path="url(#79474742b8)"><g clip-path="url(#774e9e0331)"><g clip-path="url(#0810d93e8d)"><path fill="#eceff1" d="M 0.5625 0.371094 L 258.378906 0.371094 L 258.378906 225.628906 L 0.5625 225.628906 Z M 0.5625 0.371094 " fill-opacity="1" fill-rule="nonzero"/></g></g></g></g></g></g></svg>