<svg xmlns="http://www.w3.org/2000/svg" xmlns:xlink="http://www.w3.org/1999/xlink" width="1440" zoomAndPan="magnify" viewBox="0 0 1080 1079.999946" height="1440" preserveAspectRatio="xMidYMid meet" version="1.0"><path fill="#fdfdfd" d="M 463.605469 78.375 C 461.421875 77.542969 459.1875 76.875 456.902344 76.378906 C 454.617188 75.878906 452.308594 75.554688 449.972656 75.40625 C 447.640625 75.253906 445.308594 75.28125 442.976562 75.480469 C 440.648438 75.683594 438.347656 76.058594 436.074219 76.605469 C 433.800781 77.152344 431.578125 77.867188 429.414062 78.75 C 427.25 79.632812 425.160156 80.671875 423.152344 81.867188 C 421.140625 83.0625 419.234375 84.402344 417.425781 85.886719 C 415.617188 87.371094 413.933594 88.984375 412.367188 90.722656 L 216.492188 308.253906 L 50.894531 308.253906 C 49.371094 308.253906 47.847656 308.332031 46.332031 308.480469 C 44.8125 308.628906 43.304688 308.851562 41.808594 309.152344 C 40.3125 309.449219 38.835938 309.820312 37.375 310.261719 C 35.914062 310.703125 34.480469 311.21875 33.070312 311.800781 C 31.660156 312.386719 30.285156 313.035156 28.9375 313.753906 C 27.59375 314.476562 26.285156 315.257812 25.015625 316.105469 C 23.75 316.953125 22.523438 317.859375 21.34375 318.828125 C 20.167969 319.796875 19.039062 320.820312 17.957031 321.898438 C 16.878906 322.976562 15.855469 324.105469 14.886719 325.285156 C 13.921875 326.464844 13.011719 327.6875 12.164062 328.957031 C 11.316406 330.226562 10.535156 331.53125 9.816406 332.878906 C 9.097656 334.222656 8.445312 335.601562 7.859375 337.011719 C 7.277344 338.421875 6.761719 339.855469 6.320312 341.316406 C 5.878906 342.773438 5.507812 344.253906 5.210938 345.75 C 4.914062 347.246094 4.6875 348.753906 4.539062 350.269531 C 4.390625 351.789062 4.316406 353.3125 4.316406 354.835938 L 4.316406 750.777344 C 4.316406 752.304688 4.390625 753.824219 4.539062 755.34375 C 4.6875 756.863281 4.914062 758.367188 5.210938 759.867188 C 5.507812 761.363281 5.878906 762.839844 6.320312 764.300781 C 6.761719 765.757812 7.277344 767.195312 7.859375 768.605469 C 8.445312 770.011719 9.097656 771.390625 9.816406 772.734375 C 10.535156 774.082031 11.316406 775.386719 12.164062 776.65625 C 13.011719 777.925781 13.921875 779.148438 14.886719 780.328125 C 15.855469 781.507812 16.878906 782.636719 17.957031 783.714844 C 19.039062 784.792969 20.167969 785.816406 21.34375 786.785156 C 22.523438 787.753906 23.75 788.660156 25.015625 789.507812 C 26.285156 790.355469 27.59375 791.140625 28.9375 791.859375 C 30.285156 792.578125 31.660156 793.230469 33.070312 793.8125 C 34.480469 794.398438 35.914062 794.910156 37.375 795.351562 C 38.835938 795.796875 40.3125 796.167969 41.808594 796.464844 C 43.304688 796.761719 44.8125 796.984375 46.332031 797.136719 C 47.847656 797.285156 49.371094 797.359375 50.894531 797.359375 L 217.890625 797.359375 L 413.765625 993.234375 C 415.382812 994.863281 417.109375 996.367188 418.945312 997.738281 C 420.785156 999.113281 422.714844 1000.347656 424.734375 1001.433594 C 426.757812 1002.523438 428.847656 1003.460938 431.003906 1004.238281 C 433.164062 1005.019531 435.367188 1005.636719 437.617188 1006.089844 C 439.867188 1006.546875 442.140625 1006.832031 444.433594 1006.949219 C 446.726562 1007.070312 449.011719 1007.019531 451.296875 1006.796875 C 453.582031 1006.578125 455.839844 1006.191406 458.066406 1005.636719 C 460.296875 1005.085938 462.46875 1004.371094 464.59375 1003.496094 C 466.714844 1002.621094 468.761719 1001.59375 470.730469 1000.417969 C 472.703125 999.238281 474.574219 997.925781 476.351562 996.46875 C 478.125 995.015625 479.785156 993.4375 481.328125 991.738281 C 482.871094 990.039062 484.28125 988.234375 485.558594 986.328125 C 486.832031 984.417969 487.960938 982.425781 488.945312 980.351562 C 489.925781 978.277344 490.75 976.140625 491.414062 973.945312 C 492.082031 971.746094 492.582031 969.515625 492.917969 967.242188 C 493.253906 964.972656 493.421875 962.6875 493.417969 960.394531 L 493.417969 121.929688 C 493.421875 119.589844 493.253906 117.257812 492.90625 114.941406 C 492.558594 112.625 492.039062 110.347656 491.351562 108.109375 C 490.660156 105.871094 489.804688 103.695312 488.789062 101.585938 C 487.769531 99.476562 486.597656 97.457031 485.277344 95.523438 C 483.953125 93.589844 482.492188 91.769531 480.894531 90.054688 C 479.296875 88.34375 477.578125 86.761719 475.742188 85.304688 C 473.90625 83.851562 471.96875 82.546875 469.9375 81.382812 C 467.902344 80.222656 465.792969 79.21875 463.605469 78.375 Z M 400.257812 847.898438 L 270.0625 717.707031 C 267.898438 715.558594 265.546875 713.644531 263.011719 711.960938 C 260.472656 710.277344 257.796875 708.855469 254.980469 707.699219 C 252.164062 706.539062 249.261719 705.667969 246.273438 705.078125 C 243.285156 704.488281 240.265625 704.195312 237.222656 704.195312 L 97.476562 704.195312 L 97.476562 401.417969 L 237.222656 401.417969 C 240.492188 401.425781 243.726562 401.09375 246.925781 400.421875 C 250.125 399.75 253.21875 398.75 256.210938 397.425781 C 259.199219 396.101562 262.019531 394.480469 264.667969 392.5625 C 267.316406 390.644531 269.734375 388.472656 271.925781 386.046875 L 400.257812 243.273438 L 400.257812 848.832031 Z M 400.257812 847.898438 " fill-opacity="1" fill-rule="nonzero"/><path fill="#fdfdfd" d="M 762.191406 215.09375 C 761.109375 214.015625 759.976562 212.996094 758.792969 212.027344 C 757.609375 211.0625 756.382812 210.15625 755.109375 209.3125 C 753.839844 208.46875 752.527344 207.6875 751.179688 206.96875 C 749.828125 206.253906 748.449219 205.605469 747.035156 205.023438 C 745.625 204.445312 744.183594 203.933594 742.722656 203.496094 C 741.257812 203.058594 739.777344 202.691406 738.28125 202.398438 C 736.78125 202.101562 735.269531 201.882812 733.75 201.738281 C 732.230469 201.59375 730.707031 201.523438 729.179688 201.527344 C 727.652344 201.53125 726.128906 201.613281 724.609375 201.765625 C 723.089844 201.921875 721.582031 202.148438 720.085938 202.453125 C 718.585938 202.753906 717.109375 203.132812 715.648438 203.578125 C 714.1875 204.027344 712.753906 204.546875 711.34375 205.136719 C 709.933594 205.722656 708.558594 206.382812 707.214844 207.105469 C 705.871094 207.832031 704.5625 208.617188 703.296875 209.472656 C 702.03125 210.324219 700.808594 211.238281 699.628906 212.210938 C 698.453125 213.183594 697.328125 214.210938 696.25 215.296875 C 695.175781 216.378906 694.152344 217.511719 693.1875 218.699219 C 692.222656 219.882812 691.320312 221.109375 690.476562 222.382812 C 689.632812 223.65625 688.851562 224.96875 688.136719 226.316406 C 687.421875 227.667969 686.777344 229.046875 686.195312 230.460938 C 685.617188 231.875 685.109375 233.3125 684.671875 234.777344 C 684.234375 236.238281 683.867188 237.722656 683.574219 239.21875 C 683.285156 240.71875 683.066406 242.230469 682.921875 243.75 C 682.777344 245.269531 682.710938 246.792969 682.714844 248.320312 C 682.722656 249.847656 682.800781 251.371094 682.957031 252.890625 C 683.113281 254.410156 683.34375 255.917969 683.648438 257.414062 C 683.953125 258.914062 684.328125 260.390625 684.777344 261.851562 C 685.226562 263.308594 685.75 264.746094 686.339844 266.152344 C 686.929688 267.5625 687.585938 268.9375 688.3125 270.28125 C 689.039062 271.625 689.828125 272.929688 690.683594 274.195312 C 691.535156 275.464844 692.449219 276.683594 693.425781 277.859375 C 694.398438 279.039062 695.429688 280.164062 696.511719 281.238281 C 700.8125 285.496094 705 289.855469 709.082031 294.316406 C 713.164062 298.78125 717.132812 303.339844 720.992188 308 C 724.847656 312.660156 728.585938 317.410156 732.207031 322.253906 C 735.832031 327.097656 739.332031 332.027344 742.710938 337.042969 C 746.085938 342.058594 749.339844 347.15625 752.464844 352.335938 C 755.59375 357.511719 758.589844 362.761719 761.457031 368.089844 C 764.324219 373.414062 767.058594 378.808594 769.660156 384.265625 C 772.261719 389.726562 774.726562 395.25 777.054688 400.832031 C 779.382812 406.414062 781.570312 412.050781 783.621094 417.738281 C 785.667969 423.429688 787.578125 429.167969 789.34375 434.953125 C 791.109375 440.734375 792.730469 446.5625 794.210938 452.425781 C 795.6875 458.289062 797.019531 464.1875 798.207031 470.117188 C 799.394531 476.046875 800.4375 482.003906 801.328125 487.988281 C 802.222656 493.96875 802.964844 499.96875 803.5625 505.988281 C 804.160156 512.007812 804.605469 518.035156 804.90625 524.078125 C 805.203125 530.117188 805.351562 536.160156 805.351562 542.210938 C 805.351562 548.257812 805.203125 554.300781 804.90625 560.34375 C 804.605469 566.382812 804.160156 572.414062 803.5625 578.433594 C 802.964844 584.453125 802.222656 590.453125 801.328125 596.433594 C 800.4375 602.414062 799.394531 608.371094 798.207031 614.300781 C 797.019531 620.234375 795.6875 626.128906 794.210938 631.996094 C 792.730469 637.859375 791.109375 643.683594 789.34375 649.46875 C 787.578125 655.253906 785.667969 660.992188 783.621094 666.679688 C 781.570312 672.371094 779.382812 678.007812 777.054688 683.589844 C 774.726562 689.171875 772.261719 694.691406 769.660156 700.152344 C 767.058594 705.613281 764.324219 711.007812 761.457031 716.332031 C 758.589844 721.65625 755.59375 726.910156 752.464844 732.085938 C 749.339844 737.261719 746.085938 742.359375 742.710938 747.375 C 739.332031 752.394531 735.832031 757.324219 732.207031 762.167969 C 728.585938 767.011719 724.847656 771.761719 720.992188 776.421875 C 717.132812 781.078125 713.164062 785.640625 709.082031 790.105469 C 705 794.566406 700.8125 798.925781 696.511719 803.183594 C 695.824219 803.675781 695.152344 804.1875 694.492188 804.71875 C 693.832031 805.25 693.183594 805.800781 692.554688 806.367188 C 691.925781 806.933594 691.308594 807.515625 690.710938 808.117188 C 690.113281 808.714844 689.53125 809.332031 688.96875 809.964844 C 688.402344 810.59375 687.855469 811.242188 687.324219 811.902344 C 686.796875 812.5625 686.285156 813.238281 685.792969 813.929688 C 685.300781 814.617188 684.828125 815.320312 684.371094 816.035156 C 683.917969 816.75 683.484375 817.476562 683.070312 818.214844 C 682.652344 818.957031 682.257812 819.707031 681.886719 820.464844 C 681.511719 821.226562 681.160156 821.996094 680.828125 822.777344 C 680.496094 823.554688 680.183594 824.34375 679.898438 825.140625 C 679.609375 825.9375 679.339844 826.742188 679.097656 827.550781 C 678.851562 828.363281 678.628906 829.179688 678.429688 830.003906 C 678.226562 830.828125 678.050781 831.65625 677.894531 832.488281 C 677.742188 833.320312 677.609375 834.15625 677.5 835 C 677.390625 835.839844 677.304688 836.679688 677.238281 837.527344 C 677.175781 838.371094 677.136719 839.214844 677.117188 840.0625 C 677.101562 840.910156 677.105469 841.757812 677.136719 842.605469 C 677.164062 843.453125 677.21875 844.296875 677.292969 845.140625 C 677.367188 845.984375 677.464844 846.828125 677.585938 847.664062 C 677.707031 848.503906 677.851562 849.339844 678.015625 850.167969 C 678.183594 851 678.375 851.824219 678.585938 852.644531 C 678.796875 853.464844 679.03125 854.28125 679.285156 855.089844 C 679.542969 855.894531 679.820312 856.695312 680.121094 857.488281 C 680.417969 858.28125 680.742188 859.066406 681.082031 859.839844 C 681.425781 860.613281 681.789062 861.378906 682.171875 862.136719 C 682.558594 862.890625 682.960938 863.632812 683.386719 864.367188 C 683.8125 865.101562 684.253906 865.820312 684.71875 866.53125 C 685.183594 867.238281 685.667969 867.933594 686.167969 868.617188 C 686.671875 869.300781 687.191406 869.96875 687.730469 870.621094 C 688.269531 871.277344 688.824219 871.914062 689.398438 872.539062 C 689.972656 873.164062 690.5625 873.769531 691.167969 874.363281 C 691.777344 874.953125 692.398438 875.527344 693.035156 876.085938 C 693.671875 876.644531 694.328125 877.183594 694.992188 877.707031 C 695.660156 878.226562 696.34375 878.730469 697.039062 879.214844 C 697.730469 879.699219 698.441406 880.167969 699.160156 880.613281 C 699.878906 881.058594 700.613281 881.484375 701.355469 881.890625 C 702.097656 882.296875 702.855469 882.683594 703.617188 883.046875 C 704.382812 883.414062 705.15625 883.757812 705.941406 884.082031 C 706.722656 884.402344 707.515625 884.703125 708.316406 884.984375 C 709.113281 885.265625 709.921875 885.519531 710.734375 885.757812 C 711.550781 885.992188 712.371094 886.207031 713.195312 886.398438 C 714.019531 886.585938 714.851562 886.757812 715.683594 886.902344 C 716.519531 887.046875 717.359375 887.171875 718.199219 887.269531 C 719.039062 887.371094 719.882812 887.445312 720.730469 887.5 C 721.574219 887.554688 722.421875 887.585938 723.269531 887.59375 C 724.117188 887.601562 724.964844 887.585938 725.808594 887.546875 C 726.65625 887.507812 727.5 887.445312 728.34375 887.363281 C 729.1875 887.277344 730.027344 887.167969 730.863281 887.039062 C 731.703125 886.910156 732.535156 886.753906 733.363281 886.578125 C 734.191406 886.402344 735.015625 886.203125 735.832031 885.984375 C 736.652344 885.761719 737.464844 885.519531 738.269531 885.253906 C 739.074219 884.988281 739.871094 884.703125 740.660156 884.394531 C 741.449219 884.085938 742.226562 883.753906 743 883.40625 C 743.769531 883.054688 744.53125 882.679688 745.28125 882.289062 C 746.03125 881.894531 746.773438 881.484375 747.5 881.050781 C 748.230469 880.617188 748.945312 880.164062 749.648438 879.691406 C 750.351562 879.21875 751.042969 878.726562 751.71875 878.21875 C 752.394531 877.707031 753.058594 877.179688 753.707031 876.636719 C 754.355469 876.089844 754.984375 875.527344 755.601562 874.945312 C 756.222656 874.363281 756.820312 873.769531 757.40625 873.15625 C 757.992188 872.542969 758.558594 871.914062 759.109375 871.269531 C 759.660156 870.625 760.191406 869.964844 760.707031 869.292969 C 761.21875 868.617188 761.714844 867.929688 762.191406 867.230469 C 767.539062 861.902344 772.75 856.441406 777.828125 850.855469 C 782.90625 845.265625 787.84375 839.558594 792.640625 833.730469 C 797.4375 827.898438 802.089844 821.953125 806.59375 815.894531 C 811.097656 809.835938 815.453125 803.671875 819.652344 797.398438 C 823.855469 791.125 827.898438 784.753906 831.785156 778.28125 C 835.675781 771.808594 839.402344 765.246094 842.964844 758.59375 C 846.53125 751.9375 849.929688 745.199219 853.164062 738.375 C 856.398438 731.554688 859.460938 724.65625 862.355469 717.683594 C 865.25 710.710938 867.972656 703.671875 870.519531 696.5625 C 873.066406 689.457031 875.4375 682.292969 877.632812 675.066406 C 879.832031 667.84375 881.847656 660.570312 883.683594 653.25 C 885.523438 645.925781 887.179688 638.5625 888.65625 631.160156 C 890.128906 623.753906 891.421875 616.316406 892.53125 608.851562 C 893.644531 601.382812 894.570312 593.890625 895.308594 586.378906 C 896.050781 578.867188 896.609375 571.339844 896.980469 563.796875 C 897.351562 556.257812 897.535156 548.710938 897.535156 541.160156 C 897.535156 533.613281 897.351562 526.066406 896.980469 518.527344 C 896.609375 510.984375 896.050781 503.457031 895.308594 495.945312 C 894.570312 488.433594 893.644531 480.941406 892.53125 473.472656 C 891.421875 466.007812 890.128906 458.570312 888.65625 451.164062 C 887.179688 443.761719 885.523438 436.398438 883.683594 429.074219 C 881.847656 421.753906 879.832031 414.480469 877.632812 407.257812 C 875.4375 400.03125 873.066406 392.867188 870.519531 385.761719 C 867.972656 378.652344 865.25 371.613281 862.355469 364.640625 C 859.460938 357.667969 856.398438 350.769531 853.164062 343.949219 C 849.929688 337.125 846.53125 330.386719 842.964844 323.730469 C 839.402344 317.078125 835.675781 310.515625 831.785156 304.042969 C 827.898438 297.570312 823.855469 291.199219 819.652344 284.925781 C 815.453125 278.652344 811.097656 272.488281 806.59375 266.429688 C 802.089844 260.371094 797.4375 254.425781 792.640625 248.59375 C 787.84375 242.765625 782.90625 237.054688 777.828125 231.46875 C 772.75 225.882812 767.539062 220.421875 762.191406 215.09375 Z M 762.191406 215.09375 " fill-opacity="1" fill-rule="nonzero"/><path fill="#fdfdfd" d="M 887.496094 89.789062 C 886.4375 88.625 885.324219 87.515625 884.152344 86.464844 C 882.980469 85.414062 881.761719 84.425781 880.488281 83.5 C 879.21875 82.570312 877.902344 81.710938 876.546875 80.917969 C 875.1875 80.121094 873.792969 79.398438 872.359375 78.746094 C 870.929688 78.09375 869.46875 77.515625 867.976562 77.007812 C 866.488281 76.503906 864.976562 76.078125 863.441406 75.726562 C 861.90625 75.375 860.359375 75.101562 858.800781 74.90625 C 857.238281 74.710938 855.671875 74.59375 854.097656 74.558594 C 852.523438 74.523438 850.953125 74.566406 849.382812 74.691406 C 847.816406 74.8125 846.257812 75.015625 844.710938 75.296875 C 843.160156 75.578125 841.632812 75.9375 840.121094 76.371094 C 838.609375 76.808594 837.121094 77.320312 835.660156 77.90625 C 834.203125 78.496094 832.777344 79.152344 831.382812 79.886719 C 829.988281 80.617188 828.636719 81.417969 827.324219 82.285156 C 826.011719 83.152344 824.746094 84.085938 823.53125 85.082031 C 822.3125 86.078125 821.148438 87.132812 820.039062 88.25 C 818.925781 89.363281 817.875 90.53125 816.882812 91.753906 C 815.890625 92.972656 814.964844 94.242188 814.097656 95.558594 C 813.234375 96.871094 812.441406 98.226562 811.714844 99.625 C 810.988281 101.019531 810.332031 102.449219 809.75 103.910156 C 809.171875 105.371094 808.664062 106.859375 808.234375 108.371094 C 807.800781 109.886719 807.449219 111.417969 807.171875 112.964844 C 806.898438 114.515625 806.699219 116.074219 806.582031 117.644531 C 806.464844 119.210938 806.425781 120.785156 806.46875 122.355469 C 806.511719 123.929688 806.632812 125.496094 806.832031 127.058594 C 807.03125 128.617188 807.308594 130.164062 807.667969 131.695312 C 808.023438 133.230469 808.457031 134.738281 808.96875 136.226562 C 809.476562 137.714844 810.0625 139.175781 810.71875 140.605469 C 811.378906 142.035156 812.105469 143.425781 812.90625 144.78125 C 813.703125 146.136719 814.570312 147.449219 815.5 148.71875 C 816.433594 149.984375 817.425781 151.203125 818.480469 152.371094 C 819.539062 153.535156 820.648438 154.648438 821.816406 155.703125 C 828.160156 161.988281 834.34375 168.425781 840.371094 175.015625 C 846.398438 181.605469 852.257812 188.339844 857.949219 195.21875 C 863.644531 202.101562 869.164062 209.117188 874.511719 216.269531 C 879.855469 223.421875 885.023438 230.703125 890.011719 238.109375 C 895 245.515625 899.800781 253.042969 904.414062 260.6875 C 909.03125 268.332031 913.453125 276.085938 917.6875 283.949219 C 921.917969 291.8125 925.957031 299.777344 929.792969 307.839844 C 933.632812 315.902344 937.273438 324.054688 940.707031 332.296875 C 944.144531 340.539062 947.375 348.863281 950.402344 357.261719 C 953.425781 365.664062 956.242188 374.136719 958.851562 382.679688 C 961.457031 391.21875 963.851562 399.820312 966.035156 408.476562 C 968.21875 417.136719 970.183594 425.84375 971.9375 434.601562 C 973.6875 443.359375 975.222656 452.152344 976.542969 460.984375 C 977.859375 469.816406 978.960938 478.675781 979.839844 487.5625 C 980.722656 496.449219 981.382812 505.351562 981.820312 514.273438 C 982.261719 523.191406 982.484375 532.117188 982.484375 541.046875 C 982.484375 549.976562 982.261719 558.898438 981.820312 567.820312 C 981.382812 576.738281 980.722656 585.640625 979.839844 594.527344 C 978.960938 603.414062 977.859375 612.273438 976.542969 621.105469 C 975.222656 629.9375 973.6875 638.734375 971.9375 647.488281 C 970.183594 656.246094 968.21875 664.953125 966.035156 673.613281 C 963.851562 682.273438 961.457031 690.871094 958.851562 699.414062 C 956.242188 707.953125 953.425781 716.425781 950.402344 724.828125 C 947.375 733.230469 944.144531 741.550781 940.707031 749.792969 C 937.273438 758.035156 933.632812 766.1875 929.792969 774.25 C 925.957031 782.3125 921.917969 790.277344 917.6875 798.140625 C 913.453125 806.003906 909.03125 813.757812 904.414062 821.402344 C 899.800781 829.046875 895 836.574219 890.011719 843.980469 C 885.023438 851.390625 879.855469 858.667969 874.511719 865.820312 C 869.164062 872.972656 863.644531 879.992188 857.949219 886.871094 C 852.257812 893.75 846.398438 900.484375 840.371094 907.074219 C 834.34375 913.667969 828.160156 920.105469 821.816406 926.390625 C 820.734375 927.464844 819.707031 928.589844 818.734375 929.765625 C 817.761719 930.945312 816.847656 932.164062 815.996094 933.429688 C 815.144531 934.699219 814.355469 936.003906 813.628906 937.347656 C 812.90625 938.691406 812.25 940.066406 811.660156 941.472656 C 811.070312 942.882812 810.550781 944.316406 810.105469 945.773438 C 809.65625 947.234375 809.28125 948.710938 808.976562 950.207031 C 808.675781 951.703125 808.445312 953.210938 808.289062 954.730469 C 808.136719 956.25 808.054688 957.769531 808.050781 959.296875 C 808.042969 960.824219 808.113281 962.347656 808.257812 963.867188 C 808.402344 965.386719 808.621094 966.894531 808.914062 968.394531 C 809.207031 969.890625 809.570312 971.371094 810.007812 972.835938 C 810.445312 974.296875 810.953125 975.734375 811.535156 977.144531 C 812.113281 978.558594 812.761719 979.9375 813.476562 981.289062 C 814.191406 982.636719 814.96875 983.945312 815.8125 985.21875 C 816.65625 986.492188 817.558594 987.71875 818.523438 988.902344 C 819.488281 990.085938 820.507812 991.21875 821.582031 992.300781 C 822.660156 993.386719 823.785156 994.414062 824.960938 995.386719 C 826.136719 996.359375 827.359375 997.269531 828.625 998.125 C 829.890625 998.976562 831.199219 999.765625 832.539062 1000.488281 C 833.882812 1001.210938 835.261719 1001.871094 836.667969 1002.457031 C 838.078125 1003.046875 839.511719 1003.566406 840.96875 1004.015625 C 842.429688 1004.460938 843.90625 1004.839844 845.402344 1005.140625 C 846.898438 1005.445312 848.40625 1005.671875 849.925781 1005.828125 C 851.441406 1005.984375 852.964844 1006.0625 854.492188 1006.070312 C 856.019531 1006.074219 857.542969 1006.003906 859.0625 1005.859375 C 860.582031 1005.714844 862.089844 1005.5 863.585938 1005.207031 C 865.085938 1004.914062 866.566406 1004.546875 868.027344 1004.109375 C 869.492188 1003.671875 870.929688 1003.164062 872.339844 1002.585938 C 873.753906 1002.003906 875.132812 1001.359375 876.480469 1000.644531 C 877.832031 999.929688 879.140625 999.148438 880.414062 998.304688 C 881.683594 997.460938 882.914062 996.558594 884.097656 995.59375 C 885.28125 994.628906 886.414062 993.609375 887.496094 992.535156 C 894.925781 985.171875 902.164062 977.628906 909.222656 969.90625 C 916.277344 962.1875 923.136719 954.296875 929.800781 946.234375 C 936.46875 938.175781 942.929688 929.957031 949.191406 921.578125 C 955.449219 913.199219 961.5 904.667969 967.339844 895.992188 C 973.179688 887.3125 978.800781 878.496094 984.203125 869.542969 C 989.605469 860.585938 994.785156 851.503906 999.742188 842.292969 C 1004.699219 833.082031 1009.421875 823.753906 1013.917969 814.308594 C 1018.414062 804.867188 1022.671875 795.316406 1026.695312 785.664062 C 1030.71875 776.007812 1034.5 766.261719 1038.042969 756.417969 C 1041.585938 746.578125 1044.882812 736.65625 1047.933594 726.652344 C 1050.988281 716.648438 1053.789062 706.574219 1056.347656 696.433594 C 1058.902344 686.289062 1061.203125 676.089844 1063.253906 665.832031 C 1065.308594 655.578125 1067.105469 645.277344 1068.648438 634.933594 C 1070.191406 624.589844 1071.476562 614.210938 1072.507812 603.804688 C 1073.539062 593.394531 1074.3125 582.96875 1074.828125 572.519531 C 1075.34375 562.074219 1075.601562 551.621094 1075.601562 541.160156 C 1075.601562 530.703125 1075.34375 520.25 1074.828125 509.804688 C 1074.3125 499.355469 1073.539062 488.929688 1072.507812 478.519531 C 1071.476562 468.113281 1070.191406 457.734375 1068.648438 447.390625 C 1067.105469 437.046875 1065.308594 426.746094 1063.253906 416.488281 C 1061.203125 406.234375 1058.902344 396.035156 1056.347656 385.890625 C 1053.789062 375.75 1050.988281 365.675781 1047.933594 355.671875 C 1044.882812 345.667969 1041.585938 335.746094 1038.042969 325.90625 C 1034.5 316.0625 1030.71875 306.316406 1026.695312 296.660156 C 1022.671875 287.007812 1018.410156 277.457031 1013.917969 268.015625 C 1009.421875 258.570312 1004.695312 249.242188 999.742188 240.03125 C 994.785156 230.820312 989.605469 221.738281 984.203125 212.78125 C 978.800781 203.828125 973.179688 195.011719 967.339844 186.332031 C 961.5 177.65625 955.449219 169.125 949.191406 160.746094 C 942.929688 152.367188 936.46875 144.148438 929.800781 136.089844 C 923.136719 128.027344 916.277344 120.136719 909.222656 112.417969 C 902.164062 104.695312 894.925781 97.152344 887.496094 89.789062 Z M 887.496094 89.789062 " fill-opacity="1" fill-rule="nonzero"/><path fill="#fdfdfd" d="M 630.832031 344.589844 C 629.75 343.511719 628.617188 342.492188 627.433594 341.53125 C 626.25 340.566406 625.023438 339.660156 623.75 338.816406 C 622.476562 337.972656 621.167969 337.195312 619.820312 336.480469 C 618.46875 335.765625 617.089844 335.117188 615.675781 334.539062 C 614.265625 333.960938 612.828125 333.453125 611.367188 333.011719 C 609.902344 332.574219 608.421875 332.210938 606.925781 331.917969 C 605.425781 331.625 603.917969 331.40625 602.398438 331.261719 C 600.878906 331.117188 599.355469 331.050781 597.828125 331.054688 C 596.300781 331.058594 594.78125 331.140625 593.261719 331.296875 C 591.742188 331.449219 590.234375 331.679688 588.738281 331.980469 C 587.242188 332.285156 585.765625 332.660156 584.308594 333.109375 C 582.847656 333.558594 581.414062 334.074219 580.003906 334.664062 C 578.597656 335.253906 577.222656 335.910156 575.878906 336.636719 C 574.535156 337.359375 573.230469 338.148438 571.964844 339 C 570.695312 339.851562 569.476562 340.765625 568.300781 341.738281 C 567.121094 342.710938 565.996094 343.738281 564.921875 344.820312 C 563.84375 345.90625 562.824219 347.039062 561.859375 348.222656 C 560.898438 349.40625 559.992188 350.632812 559.148438 351.90625 C 558.304688 353.175781 557.527344 354.488281 556.8125 355.835938 C 556.097656 357.183594 555.449219 358.566406 554.871094 359.976562 C 554.292969 361.390625 553.785156 362.828125 553.34375 364.289062 C 552.90625 365.753906 552.542969 367.230469 552.25 368.730469 C 551.957031 370.230469 551.738281 371.738281 551.59375 373.257812 C 551.449219 374.777344 551.382812 376.300781 551.386719 377.828125 C 551.390625 379.351562 551.472656 380.875 551.628906 382.394531 C 551.78125 383.914062 552.011719 385.417969 552.3125 386.914062 C 552.617188 388.410156 552.992188 389.890625 553.441406 391.347656 C 553.890625 392.808594 554.410156 394.242188 554.996094 395.648438 C 555.585938 397.058594 556.242188 398.433594 556.96875 399.777344 C 557.691406 401.121094 558.480469 402.425781 559.332031 403.691406 C 560.183594 404.957031 561.097656 406.179688 562.070312 407.355469 C 563.042969 408.53125 564.070312 409.660156 565.152344 410.734375 C 567.304688 412.863281 569.398438 415.042969 571.441406 417.277344 C 573.480469 419.511719 575.464844 421.792969 577.394531 424.121094 C 579.324219 426.453125 581.195312 428.828125 583.003906 431.253906 C 584.816406 433.675781 586.566406 436.140625 588.257812 438.652344 C 589.945312 441.160156 591.574219 443.710938 593.136719 446.300781 C 594.699219 448.890625 596.199219 451.519531 597.632812 454.183594 C 599.066406 456.84375 600.433594 459.542969 601.734375 462.273438 C 603.035156 465.007812 604.265625 467.769531 605.429688 470.558594 C 606.59375 473.351562 607.691406 476.171875 608.714844 479.019531 C 609.738281 481.863281 610.695312 484.734375 611.578125 487.628906 C 612.460938 490.519531 613.273438 493.433594 614.011719 496.367188 C 614.75 499.300781 615.417969 502.25 616.011719 505.21875 C 616.605469 508.183594 617.125 511.164062 617.570312 514.15625 C 618.015625 517.148438 618.390625 520.148438 618.6875 523.160156 C 618.988281 526.171875 619.210938 529.1875 619.359375 532.207031 C 619.507812 535.230469 619.582031 538.253906 619.582031 541.277344 C 619.582031 544.304688 619.507812 547.328125 619.359375 550.347656 C 619.210938 553.371094 618.988281 556.386719 618.6875 559.398438 C 618.390625 562.40625 618.015625 565.410156 617.570312 568.402344 C 617.125 571.394531 616.605469 574.371094 616.011719 577.339844 C 615.417969 580.304688 614.75 583.253906 614.011719 586.1875 C 613.273438 589.121094 612.460938 592.035156 611.578125 594.929688 C 610.695312 597.824219 609.738281 600.691406 608.714844 603.539062 C 607.691406 606.386719 606.59375 609.203125 605.429688 611.996094 C 604.265625 614.789062 603.035156 617.550781 601.734375 620.28125 C 600.433594 623.015625 599.066406 625.710938 597.632812 628.375 C 596.199219 631.039062 594.699219 633.667969 593.136719 636.257812 C 591.574219 638.847656 589.945312 641.394531 588.257812 643.90625 C 586.566406 646.414062 584.816406 648.878906 583.003906 651.304688 C 581.195312 653.726562 579.324219 656.105469 577.394531 658.433594 C 575.464844 660.765625 573.480469 663.046875 571.441406 665.28125 C 569.398438 667.511719 567.304688 669.695312 565.152344 671.824219 C 564.070312 672.898438 563.042969 674.023438 562.066406 675.199219 C 561.09375 676.375 560.179688 677.597656 559.328125 678.863281 C 558.472656 680.128906 557.683594 681.4375 556.960938 682.78125 C 556.234375 684.125 555.578125 685.5 554.988281 686.90625 C 554.398438 688.316406 553.878906 689.75 553.429688 691.210938 C 552.980469 692.667969 552.605469 694.148438 552.300781 695.644531 C 551.996094 697.140625 551.769531 698.648438 551.613281 700.167969 C 551.457031 701.683594 551.375 703.207031 551.371094 704.734375 C 551.363281 706.261719 551.433594 707.785156 551.578125 709.304688 C 551.722656 710.824219 551.941406 712.335938 552.230469 713.835938 C 552.523438 715.332031 552.890625 716.8125 553.328125 718.277344 C 553.765625 719.738281 554.273438 721.175781 554.851562 722.589844 C 555.433594 724.003906 556.078125 725.382812 556.792969 726.734375 C 557.507812 728.082031 558.289062 729.394531 559.132812 730.664062 C 559.976562 731.9375 560.878906 733.167969 561.84375 734.351562 C 562.808594 735.535156 563.828125 736.667969 564.90625 737.75 C 565.980469 738.835938 567.105469 739.863281 568.285156 740.835938 C 569.460938 741.808594 570.683594 742.722656 571.949219 743.574219 C 573.214844 744.425781 574.519531 745.214844 575.867188 745.941406 C 577.210938 746.664062 578.585938 747.320312 579.996094 747.910156 C 581.402344 748.5 582.835938 749.019531 584.296875 749.464844 C 585.757812 749.914062 587.234375 750.289062 588.730469 750.59375 C 590.226562 750.894531 591.734375 751.125 593.253906 751.277344 C 594.773438 751.433594 596.296875 751.511719 597.824219 751.519531 C 599.351562 751.523438 600.875 751.453125 602.394531 751.308594 C 603.914062 751.164062 605.425781 750.945312 606.921875 750.652344 C 608.421875 750.359375 609.902344 749.992188 611.363281 749.554688 C 612.828125 749.117188 614.265625 748.605469 615.675781 748.027344 C 617.089844 747.449219 618.46875 746.800781 619.820312 746.085938 C 621.167969 745.367188 622.480469 744.589844 623.75 743.746094 C 625.023438 742.898438 626.25 741.996094 627.433594 741.03125 C 628.617188 740.066406 629.75 739.042969 630.832031 737.96875 C 634.070312 734.757812 637.226562 731.472656 640.300781 728.109375 C 643.378906 724.746094 646.367188 721.304688 649.273438 717.792969 C 652.175781 714.28125 654.996094 710.699219 657.722656 707.050781 C 660.453125 703.398438 663.089844 699.683594 665.632812 695.902344 C 668.179688 692.121094 670.628906 688.277344 672.984375 684.375 C 675.339844 680.472656 677.597656 676.515625 679.753906 672.503906 C 681.914062 668.488281 683.976562 664.425781 685.933594 660.308594 C 687.894531 656.191406 689.75 652.03125 691.503906 647.824219 C 693.257812 643.617188 694.90625 639.371094 696.449219 635.082031 C 697.992188 630.792969 699.429688 626.46875 700.761719 622.109375 C 702.089844 617.75 703.3125 613.359375 704.425781 608.941406 C 705.539062 604.519531 706.542969 600.078125 707.4375 595.609375 C 708.332031 591.136719 709.117188 586.648438 709.789062 582.140625 C 710.460938 577.632812 711.023438 573.113281 711.472656 568.574219 C 711.921875 564.039062 712.257812 559.496094 712.484375 554.945312 C 712.707031 550.390625 712.820312 545.835938 712.820312 541.277344 C 712.820312 536.71875 712.707031 532.164062 712.484375 527.613281 C 712.257812 523.0625 711.921875 518.515625 711.472656 513.980469 C 711.023438 509.445312 710.460938 504.921875 709.789062 500.414062 C 709.117188 495.90625 708.332031 491.417969 707.4375 486.949219 C 706.542969 482.480469 705.539062 478.035156 704.425781 473.617188 C 703.3125 469.195312 702.089844 464.804688 700.761719 460.445312 C 699.429688 456.085938 697.992188 451.765625 696.449219 447.476562 C 694.90625 443.1875 693.257812 438.9375 691.503906 434.730469 C 689.75 430.523438 687.894531 426.363281 685.933594 422.25 C 683.976562 418.132812 681.914062 414.066406 679.753906 410.054688 C 677.597656 406.039062 675.339844 402.082031 672.984375 398.179688 C 670.628906 394.277344 668.179688 390.4375 665.632812 386.65625 C 663.089844 382.875 660.453125 379.15625 657.722656 375.507812 C 654.996094 371.855469 652.175781 368.273438 649.273438 364.761719 C 646.367188 361.25 643.378906 357.8125 640.300781 354.449219 C 637.226562 351.082031 634.070312 347.796875 630.832031 344.589844 Z M 630.832031 344.589844 " fill-opacity="1" fill-rule="nonzero"/></svg>