<svg xmlns="http://www.w3.org/2000/svg" xmlns:xlink="http://www.w3.org/1999/xlink" width="500" zoomAndPan="magnify" viewBox="0 0 375 374.999991" height="500" preserveAspectRatio="xMidYMid meet" version="1.0"><defs><clipPath id="87fe3d0e95"><path d="M 15.386719 15.703125 L 358.886719 15.703125 L 358.886719 358.625 L 15.386719 358.625 Z M 15.386719 15.703125 " clip-rule="nonzero"/></clipPath></defs><g clip-path="url(#87fe3d0e95)"><path fill="#f9f9f9" d="M 239.921875 187.148438 L 356.214844 70.875 C 359.007812 68.082031 359.007812 63.558594 356.214844 60.769531 L 313.242188 17.796875 C 311.917969 16.4375 310.085938 15.6875 308.199219 15.6875 C 306.296875 15.6875 304.484375 16.4375 303.136719 17.796875 L 186.847656 134.070312 L 70.554688 17.796875 C 67.867188 15.09375 63.121094 15.09375 60.449219 17.796875 L 17.480469 60.769531 C 14.6875 63.558594 14.6875 68.082031 17.480469 70.875 L 133.769531 187.148438 L 17.480469 303.4375 C 14.6875 306.230469 14.6875 310.753906 17.480469 313.542969 L 60.449219 356.515625 C 61.777344 357.875 63.609375 358.625 65.492188 358.625 C 67.394531 358.625 69.210938 357.875 70.554688 356.515625 L 186.847656 240.242188 L 303.136719 356.515625 C 304.484375 357.875 306.296875 358.625 308.199219 358.625 C 310.085938 358.625 311.917969 357.875 313.242188 356.515625 L 356.214844 313.5625 C 359.007812 310.769531 359.007812 306.230469 356.214844 303.4375 Z M 239.921875 187.148438 " fill-opacity="1" fill-rule="nonzero"/></g></svg>