<svg xmlns="http://www.w3.org/2000/svg" xmlns:xlink="http://www.w3.org/1999/xlink" width="500" zoomAndPan="magnify" viewBox="0 0 375 374.999991" height="500" preserveAspectRatio="xMidYMid meet" version="1.0"><defs><clipPath id="90c397779c"><path d="M 15.710938 45.792969 L 359.210938 45.792969 L 359.210938 359.292969 L 15.710938 359.292969 Z M 15.710938 45.792969 " clip-rule="nonzero"/></clipPath></defs><g clip-path="url(#90c397779c)"><path fill="#f9f9f9" d="M 202.417969 359.292969 C 206.527344 359.292969 209.878906 355.941406 209.878906 351.832031 L 209.878906 294.003906 L 247.1875 219.390625 L 247.1875 232.449219 C 247.1875 236.558594 250.539062 239.910156 254.648438 239.910156 L 351.648438 239.910156 C 353.777344 239.910156 355.816406 238.945312 357.246094 237.34375 C 358.671875 235.742188 359.371094 233.640625 359.109375 231.515625 L 336.726562 52.4375 C 336.257812 48.707031 333.023438 45.910156 329.265625 45.910156 L 254.648438 45.910156 C 250.539062 45.910156 247.1875 49.234375 247.1875 53.371094 L 247.1875 60.832031 L 238.5625 60.832031 C 235.472656 52.148438 227.078125 45.910156 217.34375 45.910156 L 75.574219 45.910156 C 59.105469 45.910156 45.726562 59.289062 45.726562 75.757812 C 45.726562 81.90625 47.679688 87.558594 50.859375 92.3125 C 39.226562 96.390625 30.804688 107.527344 30.804688 120.523438 C 30.804688 127.839844 33.429688 134.457031 37.800781 139.644531 C 29.144531 144.863281 23.34375 154.453125 23.34375 165.292969 C 23.34375 172.609375 25.964844 179.226562 30.339844 184.414062 C 21.683594 189.632812 15.882812 199.21875 15.882812 210.0625 C 15.882812 226.53125 29.261719 239.910156 45.726562 239.910156 L 154.851562 239.910156 C 150.304688 254.308594 142.726562 280.074219 142.726562 292.140625 C 142.726562 320.238281 163.304688 359.292969 183.53125 359.292969 Z M 194.957031 344.371094 L 183.53125 344.371094 C 176.683594 344.371094 157.648438 318.398438 157.648438 292.140625 C 157.648438 280.453125 168.085938 246.757812 172.105469 234.777344 C 172.894531 232.503906 172.574219 229.96875 171.175781 228.015625 C 169.773438 226.0625 167.5 224.984375 165.113281 224.984375 L 45.726562 224.984375 C 37.507812 224.984375 30.804688 218.28125 30.804688 210.0625 C 30.804688 201.84375 37.507812 195.140625 45.726562 195.140625 L 53.1875 195.140625 C 57.328125 195.140625 60.652344 191.816406 60.652344 187.679688 C 60.652344 183.539062 57.328125 180.21875 53.1875 180.21875 C 44.96875 180.21875 38.265625 173.511719 38.265625 165.292969 C 38.265625 157.074219 44.96875 150.371094 53.1875 150.371094 L 60.652344 150.371094 C 64.789062 150.371094 68.113281 147.046875 68.113281 142.910156 C 68.113281 138.769531 64.789062 135.449219 60.652344 135.449219 C 52.429688 135.449219 45.726562 128.746094 45.726562 120.523438 C 45.726562 112.304688 52.429688 105.601562 60.652344 105.601562 L 75.574219 105.601562 C 79.710938 105.601562 83.035156 102.28125 83.035156 98.140625 C 83.035156 94 79.710938 90.679688 75.574219 90.679688 C 67.355469 90.679688 60.652344 83.976562 60.652344 75.757812 C 60.652344 67.535156 67.355469 60.832031 75.574219 60.832031 L 217.34375 60.832031 C 221.453125 60.832031 224.804688 64.183594 224.804688 68.292969 C 224.804688 72.433594 228.15625 75.757812 232.265625 75.757812 L 247.1875 75.757812 L 247.1875 202.601562 L 243.457031 202.601562 C 240.628906 202.601562 237.976562 204.261719 236.695312 206.796875 L 195.65625 288.875 C 195.132812 289.894531 194.957031 290.972656 194.957031 292.140625 Z M 343.253906 224.984375 L 262.109375 224.984375 L 262.109375 60.832031 L 322.734375 60.832031 Z M 288.226562 98.140625 C 294.40625 98.140625 299.417969 93.128906 299.417969 86.949219 C 299.417969 80.769531 294.40625 75.757812 288.226562 75.757812 C 282.046875 75.757812 277.035156 80.769531 277.035156 86.949219 C 277.035156 93.128906 282.046875 98.140625 288.226562 98.140625 Z M 288.226562 98.140625 " fill-opacity="1" fill-rule="nonzero"/></g></svg>