<svg xmlns="http://www.w3.org/2000/svg" xmlns:xlink="http://www.w3.org/1999/xlink" width="500" zoomAndPan="magnify" viewBox="0 0 375 374.999991" height="500" preserveAspectRatio="xMidYMid meet" version="1.0"><defs><clipPath id="e730dd953f"><path d="M 74.113281 16 L 300 16 L 300 358 L 74.113281 358 Z M 74.113281 16 " clip-rule="nonzero"/></clipPath></defs><g clip-path="url(#e730dd953f)"><path fill="#f9f9f9" d="M 130.125 16.84375 C 128.097656 16.871094 126.191406 17.660156 124.742188 19.078125 L 78.121094 65.335938 C 75.101562 68.359375 75.070312 73.257812 78.0625 76.28125 L 188.230469 187.355469 L 77.1875 297.523438 C 74.132812 300.546875 74.101562 305.445312 77.125 308.46875 L 123.382812 355.085938 C 126.40625 358.140625 131.300781 358.167969 134.324219 355.144531 L 297.523438 193.28125 C 300.546875 190.257812 300.574219 185.359375 297.550781 182.304688 L 135.714844 19.140625 C 134.234375 17.628906 132.210938 16.8125 130.125 16.84375 Z M 130.125 16.84375 " fill-opacity="1" fill-rule="nonzero"/></g></svg>