<svg xmlns="http://www.w3.org/2000/svg" xmlns:xlink="http://www.w3.org/1999/xlink" width="500" zoomAndPan="magnify" viewBox="0 0 375 374.999991" height="500" preserveAspectRatio="xMidYMid meet" version="1.0"><defs><clipPath id="cf9ec45672"><path d="M 272 17.109375 L 375 17.109375 L 375 188 L 272 188 Z M 272 17.109375 " clip-rule="nonzero"/></clipPath><clipPath id="6c1de50bd9"><path d="M 0 187 L 103 187 L 103 357.609375 L 0 357.609375 Z M 0 187 " clip-rule="nonzero"/></clipPath><clipPath id="2070cf9f29"><path d="M 0 187 L 103 187 L 103 357.609375 L 0 357.609375 Z M 0 187 " clip-rule="nonzero"/></clipPath></defs><g clip-path="url(#cf9ec45672)"><path fill="#38b4fe" d="M 272.695312 187.5 L 272.695312 17.109375 L 374.929688 102.304688 Z M 272.695312 187.5 " fill-opacity="1" fill-rule="nonzero"/></g><path fill="#38b4fe" d="M 323.8125 98.898438 C 308.476562 90.378906 291.4375 85.265625 272.695312 85.265625 L 102.304688 85.265625 C 46.074219 85.265625 0.0703125 131.269531 0.0703125 187.5 C 0.0703125 199.425781 1.773438 211.355469 6.886719 221.578125 L 35.851562 197.722656 C 34.148438 194.316406 34.148438 190.90625 34.148438 187.5 C 34.148438 150.015625 64.820312 119.34375 102.304688 119.34375 L 272.695312 119.34375 C 282.917969 119.34375 293.140625 122.75 303.367188 126.160156 C 325.515625 138.085938 354.484375 115.9375 323.8125 98.898438 Z M 323.8125 98.898438 " fill-opacity="1" fill-rule="nonzero"/><g clip-path="url(#6c1de50bd9)"><path fill="#38b4fe" d="M 102.304688 187.5 L 102.304688 357.890625 L 0.0703125 272.695312 Z M 102.304688 187.5 " fill-opacity="1" fill-rule="nonzero"/></g><path fill="#38b4fe" d="M 51.1875 276.101562 C 66.523438 284.621094 83.5625 289.734375 102.304688 289.734375 L 272.695312 289.734375 C 328.925781 289.734375 374.929688 243.730469 374.929688 187.5 C 374.929688 175.574219 373.226562 163.644531 368.113281 153.421875 L 339.148438 177.277344 C 339.148438 180.683594 340.851562 185.796875 340.851562 189.203125 C 340.851562 226.691406 310.179688 257.359375 272.695312 257.359375 L 102.304688 257.359375 C 92.082031 257.359375 81.859375 253.953125 71.632812 250.542969 C 49.484375 236.914062 20.515625 259.0625 51.1875 276.101562 Z M 51.1875 276.101562 " fill-opacity="1" fill-rule="nonzero"/><g clip-path="url(#2070cf9f29)"><path fill="#38b4fe" d="M 102.304688 187.5 L 102.304688 357.890625 L 0.0703125 272.695312 Z M 102.304688 187.5 " fill-opacity="1" fill-rule="nonzero"/></g></svg>