<svg xmlns="http://www.w3.org/2000/svg" xmlns:xlink="http://www.w3.org/1999/xlink" width="500" zoomAndPan="magnify" viewBox="0 0 375 374.999991" height="500" preserveAspectRatio="xMidYMid meet" version="1.0"><defs><clipPath id="bd6ca10ed5"><path d="M 281 15.703125 L 375 15.703125 L 375 172 L 281 172 Z M 281 15.703125 " clip-rule="nonzero"/></clipPath><clipPath id="ce5a0e159f"><path d="M 281 203 L 375 203 L 375 359.203125 L 281 359.203125 Z M 281 203 " clip-rule="nonzero"/></clipPath></defs><g clip-path="url(#bd6ca10ed5)"><path fill="#f9f9f9" d="M 281.207031 171.882812 L 281.207031 15.703125 L 374.914062 93.792969 Z M 281.207031 171.882812 " fill-opacity="1" fill-rule="nonzero"/></g><g clip-path="url(#ce5a0e159f)"><path fill="#f9f9f9" d="M 281.207031 359.296875 L 281.207031 203.117188 L 374.914062 281.207031 Z M 281.207031 359.296875 " fill-opacity="1" fill-rule="nonzero"/></g><path fill="#f9f9f9" d="M 134.398438 170.320312 C 140.644531 162.511719 148.457031 154.703125 154.703125 146.894531 C 117.21875 109.410156 70.367188 78.175781 0.0859375 78.175781 L 0.0859375 109.410156 C 60.996094 109.410156 100.039062 135.960938 134.398438 170.320312 Z M 134.398438 170.320312 " fill-opacity="1" fill-rule="nonzero"/><path fill="#f9f9f9" d="M 206.242188 206.242188 C 199.996094 214.050781 192.183594 221.859375 185.9375 229.667969 C 217.175781 265.589844 249.972656 296.824219 296.824219 296.824219 L 296.824219 265.589844 C 260.902344 265.589844 234.355469 239.039062 206.242188 206.242188 Z M 206.242188 206.242188 " fill-opacity="1" fill-rule="nonzero"/><path fill="#f9f9f9" d="M 171.882812 162.511719 C 128.152344 212.488281 84.421875 265.589844 0.0859375 265.589844 L 0.0859375 296.824219 C 98.476562 296.824219 153.140625 232.792969 195.308594 182.816406 C 228.105469 143.769531 257.78125 109.410156 296.824219 109.410156 L 296.824219 78.175781 C 242.164062 78.175781 207.804688 118.78125 171.882812 162.511719 Z M 171.882812 162.511719 " fill-opacity="1" fill-rule="nonzero"/></svg>