<svg xmlns="http://www.w3.org/2000/svg" xmlns:xlink="http://www.w3.org/1999/xlink" width="500" zoomAndPan="magnify" viewBox="0 0 375 374.999991" height="500" preserveAspectRatio="xMidYMid meet" version="1.0"><defs><clipPath id="9ab0f79666"><path d="M 15.542969 15.703125 L 358.980469 15.703125 L 358.980469 360 L 15.542969 360 Z M 15.542969 15.703125 " clip-rule="nonzero"/></clipPath><clipPath id="3c20aed256"><path d="M 26.042969 15.703125 L 348.480469 15.703125 C 351.261719 15.703125 353.933594 16.808594 355.902344 18.777344 C 357.871094 20.746094 358.980469 23.417969 358.980469 26.203125 L 358.980469 348.796875 C 358.980469 351.582031 357.871094 354.253906 355.902344 356.222656 C 353.933594 358.191406 351.261719 359.296875 348.480469 359.296875 L 26.042969 359.296875 C 23.257812 359.296875 20.585938 358.191406 18.617188 356.222656 C 16.648438 354.253906 15.542969 351.582031 15.542969 348.796875 L 15.542969 26.203125 C 15.542969 23.417969 16.648438 20.746094 18.617188 18.777344 C 20.585938 16.808594 23.257812 15.703125 26.042969 15.703125 Z M 26.042969 15.703125 " clip-rule="nonzero"/></clipPath></defs><g clip-path="url(#9ab0f79666)"><g clip-path="url(#3c20aed256)"><path fill="#ffd602" d="M 15.542969 15.703125 L 358.980469 15.703125 L 358.980469 359.140625 L 15.542969 359.140625 Z M 15.542969 15.703125 " fill-opacity="1" fill-rule="nonzero"/></g></g></svg>