<svg xmlns="http://www.w3.org/2000/svg" xmlns:xlink="http://www.w3.org/1999/xlink" width="500" zoomAndPan="magnify" viewBox="0 0 375 374.999991" height="500" preserveAspectRatio="xMidYMid meet" version="1.0"><defs><clipPath id="7c1bb154db"><path d="M 15.542969 15.703125 L 359 15.703125 L 359 329.203125 L 15.542969 329.203125 Z M 15.542969 15.703125 " clip-rule="nonzero"/></clipPath></defs><g clip-path="url(#7c1bb154db)"><path fill="#38b4fe" d="M 172.332031 15.703125 C 168.222656 15.703125 164.871094 19.054688 164.871094 23.164062 L 164.871094 80.992188 L 127.5625 155.605469 L 127.5625 142.546875 C 127.5625 138.4375 124.210938 135.085938 120.101562 135.085938 L 23.101562 135.085938 C 20.976562 135.085938 18.933594 136.050781 17.507812 137.652344 C 16.078125 139.253906 15.378906 141.355469 15.640625 143.480469 L 38.027344 322.558594 C 38.492188 326.289062 41.726562 329.085938 45.488281 329.085938 L 120.101562 329.085938 C 124.210938 329.085938 127.5625 325.761719 127.5625 321.625 L 127.5625 314.164062 L 136.191406 314.164062 C 139.28125 322.847656 147.675781 329.085938 157.410156 329.085938 L 299.179688 329.085938 C 315.644531 329.085938 329.023438 315.707031 329.023438 299.238281 C 329.023438 293.089844 327.070312 287.4375 323.894531 282.683594 C 335.523438 278.605469 343.949219 267.46875 343.949219 254.472656 C 343.949219 247.15625 341.324219 240.539062 336.953125 235.351562 C 345.609375 230.132812 351.410156 220.542969 351.410156 209.703125 C 351.410156 202.386719 348.785156 195.769531 344.414062 190.582031 C 353.070312 185.363281 358.871094 175.777344 358.871094 164.933594 C 358.871094 148.464844 345.492188 135.085938 329.023438 135.085938 L 219.898438 135.085938 C 224.445312 120.6875 232.023438 94.921875 232.023438 82.855469 C 232.023438 54.757812 211.449219 15.703125 191.21875 15.703125 Z M 179.792969 30.625 L 191.21875 30.625 C 198.070312 30.625 217.101562 56.59375 217.101562 82.855469 C 217.101562 94.542969 206.667969 128.238281 202.644531 140.21875 C 201.859375 142.492188 202.179688 145.027344 203.578125 146.980469 C 204.976562 148.929688 207.25 150.011719 209.640625 150.011719 L 329.023438 150.011719 C 337.242188 150.011719 343.949219 156.714844 343.949219 164.933594 C 343.949219 173.152344 337.242188 179.855469 329.023438 179.855469 L 321.5625 179.855469 C 317.425781 179.855469 314.101562 183.179688 314.101562 187.316406 C 314.101562 191.457031 317.425781 194.777344 321.5625 194.777344 C 329.78125 194.777344 336.484375 201.484375 336.484375 209.703125 C 336.484375 217.921875 329.78125 224.625 321.5625 224.625 L 314.101562 224.625 C 309.960938 224.625 306.640625 227.949219 306.640625 232.085938 C 306.640625 236.226562 309.960938 239.546875 314.101562 239.546875 C 322.320312 239.546875 329.023438 246.25 329.023438 254.472656 C 329.023438 262.691406 322.320312 269.394531 314.101562 269.394531 L 299.179688 269.394531 C 295.039062 269.394531 291.71875 272.714844 291.71875 276.855469 C 291.71875 280.996094 295.039062 284.316406 299.179688 284.316406 C 307.398438 284.316406 314.101562 291.019531 314.101562 299.238281 C 314.101562 307.460938 307.398438 314.164062 299.179688 314.164062 L 157.410156 314.164062 C 153.300781 314.164062 149.949219 310.8125 149.949219 306.703125 C 149.949219 302.5625 146.597656 299.238281 142.488281 299.238281 L 127.5625 299.238281 L 127.5625 172.394531 L 131.296875 172.394531 C 134.121094 172.394531 136.773438 170.734375 138.058594 168.199219 L 179.09375 86.121094 C 179.621094 85.101562 179.792969 84.023438 179.792969 82.855469 Z M 31.496094 150.011719 L 112.640625 150.011719 L 112.640625 314.164062 L 52.015625 314.164062 Z M 86.527344 276.855469 C 80.347656 276.855469 75.332031 281.867188 75.332031 288.046875 C 75.332031 294.226562 80.347656 299.238281 86.527344 299.238281 C 92.707031 299.238281 97.71875 294.226562 97.71875 288.046875 C 97.71875 281.867188 92.707031 276.855469 86.527344 276.855469 Z M 86.527344 276.855469 " fill-opacity="1" fill-rule="nonzero"/></g></svg>