<svg xmlns="http://www.w3.org/2000/svg" xmlns:xlink="http://www.w3.org/1999/xlink" width="500" zoomAndPan="magnify" viewBox="0 0 375 374.999991" height="500" preserveAspectRatio="xMidYMid meet" version="1.0"><defs><clipPath id="217efe58be"><path d="M 15.703125 15.703125 L 359 15.703125 L 359 358.625 L 15.703125 358.625 Z M 15.703125 15.703125 " clip-rule="nonzero"/></clipPath></defs><g clip-path="url(#217efe58be)"><path fill="#ff3131" d="M 240.242188 187.148438 L 356.53125 70.875 C 359.324219 68.082031 359.324219 63.558594 356.53125 60.769531 L 313.5625 17.796875 C 312.234375 16.4375 310.402344 15.6875 308.519531 15.6875 C 306.617188 15.6875 304.800781 16.4375 303.457031 17.796875 L 187.164062 134.070312 L 70.875 17.796875 C 68.183594 15.09375 63.4375 15.09375 60.769531 17.796875 L 17.796875 60.769531 C 15.003906 63.558594 15.003906 68.082031 17.796875 70.875 L 134.089844 187.148438 L 17.796875 303.4375 C 15.003906 306.230469 15.003906 310.753906 17.796875 313.542969 L 60.769531 356.515625 C 62.09375 357.875 63.925781 358.625 65.8125 358.625 C 67.714844 358.625 69.527344 357.875 70.875 356.515625 L 187.164062 240.242188 L 303.457031 356.515625 C 304.800781 357.875 306.617188 358.625 308.519531 358.625 C 310.402344 358.625 312.234375 357.875 313.5625 356.515625 L 356.53125 313.5625 C 359.324219 310.769531 359.324219 306.230469 356.53125 303.4375 Z M 240.242188 187.148438 " fill-opacity="1" fill-rule="nonzero"/></g></svg>