<svg xmlns="http://www.w3.org/2000/svg" xmlns:xlink="http://www.w3.org/1999/xlink" width="500" zoomAndPan="magnify" viewBox="0 0 375 374.999991" height="500" preserveAspectRatio="xMidYMid meet" version="1.0"><defs><clipPath id="cf4353cddb"><path d="M 75 16 L 300.613281 16 L 300.613281 358 L 75 358 Z M 75 16 " clip-rule="nonzero"/></clipPath></defs><g clip-path="url(#cf4353cddb)"><path fill="#f9f9f9" d="M 244.875 16.84375 C 246.898438 16.871094 248.804688 17.660156 250.253906 19.078125 L 296.875 65.335938 C 299.898438 68.359375 299.929688 73.257812 296.933594 76.28125 L 186.765625 187.355469 L 297.8125 297.523438 C 300.867188 300.546875 300.894531 305.445312 297.871094 308.46875 L 251.617188 355.085938 C 248.59375 358.140625 243.695312 358.167969 240.671875 355.144531 L 77.476562 193.28125 C 74.453125 190.257812 74.421875 185.359375 77.445312 182.304688 L 239.28125 19.140625 C 240.761719 17.628906 242.789062 16.8125 244.875 16.84375 Z M 244.875 16.84375 " fill-opacity="1" fill-rule="nonzero"/></g></svg>